<svg width="97" height="97" viewBox="0 0 97 97" fill="none" xmlns="http://www.w3.org/2000/svg">
<mask id="path-1-inside-1" fill="white">
<path fill-rule="evenodd" clip-rule="evenodd" d="M82.2911 13.709C73.557 5.22434 61.6386 7.35033e-07 48.5 5.78357e-07C21.7142 2.58939e-07 8.97774e-07 21.7142 5.78357e-07 48.5C2.58939e-07 75.2858 21.7142 97 48.5 97C75.2858 97 97 75.2858 97 48.5C97 48.3331 96.9992 48.1665 96.9975 48L48 48L82.2911 13.709Z"/>
</mask>
<path fill-rule="evenodd" clip-rule="evenodd" d="M82.2911 13.709C73.557 5.22434 61.6386 7.35033e-07 48.5 5.78357e-07C21.7142 2.58939e-07 8.97774e-07 21.7142 5.78357e-07 48.5C2.58939e-07 75.2858 21.7142 97 48.5 97C75.2858 97 97 75.2858 97 48.5C97 48.3331 96.9992 48.1665 96.9975 48L48 48L82.2911 13.709Z" fill="#FF847C"/>
<path d="M82.2911 13.709L84.4124 15.8303L86.5647 13.678L84.3814 11.5571L82.2911 13.709ZM96.9975 48L99.9973 47.9698L99.9674 45L96.9975 45L96.9975 48ZM48 48L45.8787 45.8787L40.7574 51L48 51L48 48ZM48.5 3C60.827 3 72.0039 7.8981 80.2007 15.8608L84.3814 11.5571C75.11 2.55057 62.4502 -3 48.5 -3L48.5 3ZM3 48.5C3 23.371 23.371 3 48.5 3L48.5 -3C20.0573 -3 -3 20.0573 -3 48.5L3 48.5ZM48.5 94C23.371 94 3 73.629 3 48.5L-3 48.5C-3 76.9427 20.0573 100 48.5 100L48.5 94ZM94 48.5C94 73.629 73.629 94 48.5 94L48.5 100C76.9427 100 100 76.9427 100 48.5L94 48.5ZM93.9976 48.0302C93.9992 48.1867 94 48.3433 94 48.5L100 48.5C100 48.323 99.9991 48.1462 99.9973 47.9698L93.9976 48.0302ZM48 51L96.9975 51L96.9975 45L48 45L48 51ZM80.1698 11.5876L45.8787 45.8787L50.1214 50.1213L84.4124 15.8303L80.1698 11.5876Z" fill="white" mask="url(#path-1-inside-1)"/>
<circle cx="41.5" cy="15.5" r="4.5" fill="white"/>
<circle cx="29.5" cy="37.5" r="4.5" fill="white"/>
<path d="M78 62.5C78 64.9853 75.9853 67 73.5 67C71.0147 67 69 64.9853 69 62.5C69 60.0147 71.0147 58 73.5 58C75.9853 58 78 60.0147 78 62.5Z" fill="white"/>
<circle cx="24.5" cy="66.5" r="4.5" fill="white"/>
<circle cx="50.5" cy="78.5" r="4.5" fill="white"/>
</svg>
